<svg width="32" height="32" viewBox="0 0 32 32" fill="none" xmlns="http://www.w3.org/2000/svg">
  <!-- Background circle -->
  <circle cx="16" cy="16" r="15" fill="url(#gradient)" stroke="#7FDBFF" stroke-width="2"/>
  
  <!-- Brain outline -->
  <path d="M8 12C8 8 10 6 12 6C14 6 16 8 16 10C16 8 18 6 20 6C22 6 24 8 24 12C24 16 22 18 20 18C18 18 16 16 16 14C16 16 14 18 12 18C10 18 8 16 8 12Z" fill="#FFDC00" opacity="0.8"/>
  
  <!-- Puzzle pieces -->
  <path d="M6 20C6 18 7 17 8 17C9 17 10 18 10 20C10 22 9 23 8 23C7 23 6 22 6 20Z" fill="#FF4136"/>
  <path d="M22 20C22 18 23 17 24 17C25 17 26 18 26 20C26 22 25 23 24 23C23 23 22 22 22 20Z" fill="#B10DC9"/>
  <path d="M14 24C14 22 15 21 16 21C17 21 18 22 18 24C18 26 17 27 16 27C15 27 14 26 14 24Z" fill="#2ECC40"/>
  
  <!-- Sparkles -->
  <circle cx="12" cy="8" r="1" fill="#FFDC00"/>
  <circle cx="20" cy="8" r="1" fill="#FF4136"/>
  <circle cx="16" cy="12" r="0.5" fill="#7FDBFF"/>
  
  <!-- Gradient definition -->
  <defs>
    <linearGradient id="gradient" x1="0%" y1="0%" x2="100%" y2="100%">
      <stop offset="0%" style="stop-color:#1a1a1a;stop-opacity:1" />
      <stop offset="100%" style="stop-color:#2d1b69;stop-opacity:1" />
    </linearGradient>
  </defs>
</svg> 